<svg width="186" height="195" viewBox="0 0 186 195" fill="none" xmlns="http://www.w3.org/2000/svg">
<g filter="url(#filter0_d_11_59)">
<path d="M58.5195 85.4414H50.375C50.375 94.7383 50.5703 104.582 50.9609 114.973C50.9609 115.207 51.0586 115.422 51.2539 115.617C51.4492 115.812 51.7227 116.008 52.0742 116.203C52.4648 116.398 53.1094 116.652 54.0078 116.965C54.9062 117.277 56.7227 117.629 59.457 118.02C62.1914 118.371 63.7539 118.586 64.1445 118.664C64.8086 120.852 64.6914 123.254 63.793 125.871C49.3789 125.559 40.6289 125.402 37.543 125.402C35.4336 125.402 28.0703 125.559 15.4531 125.871C14.4766 123.176 14.4766 120.656 15.4531 118.312C23.9297 117.453 28.207 116.301 28.2852 114.855C28.7539 105.09 28.9883 92.8047 28.9883 78C28.9883 65.4219 28.793 54.543 28.4023 45.3633C28.3242 43.918 23.9688 42.7656 15.3359 41.9062C14.5938 39.1719 14.6719 36.6523 15.5703 34.3477C27.5625 34.7383 35.5117 34.9336 39.418 34.9336H93.6758C94.6523 42.5898 97.6992 50.6562 102.816 59.1328C101.918 61.0078 99.8281 62.5312 96.5469 63.7031C93.3438 57.8828 88.6172 53.0391 82.3672 49.1719C76.1562 45.2656 68.0898 43.3125 58.168 43.3125H50.9609C50.5703 57.3359 50.375 68.0977 50.375 75.5977C52.2891 75.6758 55.043 75.7148 58.6367 75.7148C61.918 75.7148 64.5352 74.6211 66.4883 72.4336C68.4414 70.207 70.5898 66.75 72.9336 62.0625L75.4531 57.1406C78.7344 58.3125 80.8047 59.8164 81.6641 61.6523C77.5234 69.1133 75.4531 75.2461 75.4531 80.0508C75.4531 85.2461 77.5234 91.3594 81.6641 98.3906C80.7266 100.383 78.7344 101.906 75.6875 102.961C74.7891 101.75 73.7539 99.9141 72.582 97.4531C70.9805 94.7969 69.7109 92.8242 68.7734 91.5352C67.8359 90.207 66.4492 88.8789 64.6133 87.5508C62.7773 86.2227 60.7461 85.5195 58.5195 85.4414ZM41.3516 81.9844L58.0508 81.8672C59.7305 81.8672 61.3125 82.1406 62.7969 82.6875C64.2812 83.2344 65.4531 83.8008 66.3125 84.3867C67.2109 84.9336 68.2266 86.0078 69.3594 87.6094C70.5312 89.2109 71.3516 90.3828 71.8203 91.125C72.3281 91.8281 73.1484 93.3125 74.2812 95.5781C75.4531 97.8438 76.2344 99.3086 76.625 99.9727C77.8359 99.4648 78.5977 98.9375 78.9102 98.3906C75.0039 91.4375 73.0508 85.3242 73.0508 80.0508C73.0508 77.6289 73.5977 74.6797 74.6914 71.2031C75.8242 67.7266 77.2305 64.543 78.9102 61.6523C78.7539 61.1055 77.9922 60.5977 76.625 60.1289C76.3125 60.6758 75.6875 61.8477 74.75 63.6445C73.8516 65.4414 73.2656 66.6133 72.9922 67.1602C72.7188 67.668 72.1523 68.625 71.293 70.0312C70.4727 71.4375 69.8086 72.375 69.3008 72.8438C68.832 73.3125 68.1289 74.0156 67.1914 74.9531C66.293 75.8516 65.4141 76.4766 64.5547 76.8281C63.7344 77.1406 62.7578 77.4336 61.625 77.707C60.4922 77.9805 59.3008 78.1172 58.0508 78.1172C50.7461 78.1172 45.1797 78.0391 41.3516 77.8828C41.3516 68.4297 41.5859 56.1055 42.0547 40.9102H58.2852C77.3867 40.9102 90.5117 47.5117 97.6602 60.7148C98.6758 60.3242 99.3398 59.7969 99.6523 59.1328C95.7461 51.1641 91.3711 45.5391 86.5273 42.2578C81.6836 38.9766 74.457 37.3359 64.8477 37.3359H37.7773C32.8945 37.3359 26.0391 37.1797 17.2109 36.8672V39.6211C26.1953 40.4805 30.7266 42.3555 30.8047 45.2461C31.1953 54.4258 31.3906 65.3438 31.3906 78C31.3906 90.3828 31.1562 102.707 30.6875 114.973C30.6094 117.863 26.0781 119.738 17.0938 120.598C16.7812 121.223 16.7812 122.141 17.0938 123.352C23.7344 123.117 30.5508 123 37.543 123C45.8633 123 53.8516 123.117 61.5078 123.352C61.8203 122.727 61.8203 121.809 61.5078 120.598C48.6172 119.816 42.0938 117.941 41.9375 114.973C41.5469 105.754 41.3516 94.7578 41.3516 81.9844Z" fill="#FFBF3C"/>
</g>
<g filter="url(#filter1_d_11_59)">
<path d="M107.164 80.9624H107.278C109.64 80.8101 112.687 80.7339 116.419 80.7339C122.208 80.7339 126.626 82.5239 129.673 86.104C132.758 89.6841 134.3 94.3306 134.3 100.043C134.3 105.833 132.891 110.86 130.073 115.125C127.292 119.353 122.932 121.467 116.99 121.467C113.486 121.467 110.021 121.029 106.593 120.153C106.593 106.747 106.783 93.6831 107.164 80.9624ZM131.958 100.043C131.958 95.1304 130.473 90.998 127.502 87.6465C124.569 84.2949 120.685 82.8096 115.848 83.1904C115.543 97.8535 115.391 109.603 115.391 118.439C116.152 118.667 117.314 118.858 118.875 119.01C123.332 118.515 126.626 116.42 128.759 112.726C130.892 109.032 131.958 104.804 131.958 100.043ZM96.1953 153.173C96.1191 155.992 91.7012 157.82 82.9414 158.658C82.6367 159.267 82.6367 160.162 82.9414 161.343C89.416 161.114 96.062 161 102.879 161C110.992 161 118.78 161.114 126.245 161.343C126.55 160.733 126.55 159.838 126.245 158.658C113.601 157.896 107.24 156.068 107.164 153.173C106.783 142.471 106.593 132.912 106.593 124.495C110.896 125.371 114.876 125.809 118.533 125.809C124.779 137.425 133.005 149.155 143.212 161C145.155 161 147.954 161.019 151.61 161.057C155.305 161.095 158.618 161.133 161.551 161.171C164.521 161.209 167.34 161.267 170.006 161.343C170.311 160.657 170.311 159.762 170.006 158.658C163.76 158.201 158.485 156.677 154.181 154.087C149.916 151.459 144.926 146.623 139.213 139.577C135.329 134.664 131.825 129.484 128.702 124.038C134.338 122.171 138.775 119.067 142.013 114.726C145.25 110.384 146.869 105.49 146.869 100.043C146.869 93.188 144.66 87.6465 140.242 83.4189C135.824 79.1533 129.711 77.0205 121.903 77.0205C96.1572 77.3252 83.208 77.3252 83.0557 77.0205C82.8271 77.9346 82.8271 78.8296 83.0557 79.7056C91.8154 80.5435 96.2334 82.3716 96.3096 85.1899C96.6904 94.1401 96.8809 104.785 96.8809 117.125C96.8809 129.198 96.6523 141.214 96.1953 153.173ZM93.853 153.059C94.3101 143.538 94.5386 131.56 94.5386 117.125C94.5386 104.861 94.3481 94.2544 93.9673 85.3042C93.8911 83.895 89.6445 82.7715 81.2275 81.9336C80.5801 79.4199 80.6562 76.9634 81.4561 74.564C85.6455 74.7925 90.1968 74.9067 95.1099 74.9067C100.023 74.9067 105.66 74.8687 112.02 74.7925C118.38 74.7163 123.046 74.6782 126.017 74.6782C135.233 74.6782 142.47 77.0205 147.726 81.7051C152.981 86.3516 155.609 92.4644 155.609 100.043C155.609 105.414 154.067 110.365 150.982 114.897C147.897 119.429 143.746 122.857 138.528 125.18C141.118 129.408 144.126 133.75 147.554 138.206C151.591 143.576 155.552 147.841 159.437 151.002C163.36 154.164 167.702 155.973 172.462 156.43C173.072 158.867 172.996 161.324 172.234 163.799C166.788 163.647 156.771 163.495 142.184 163.342C131.482 150.85 123.122 139.12 117.104 128.151H115.391C115.391 135.235 115.581 143.538 115.962 153.059C115.962 153.288 116.057 153.516 116.248 153.745C116.438 153.973 117.181 154.335 118.476 154.83C119.771 155.325 121.732 155.763 124.36 156.144C127.026 156.487 128.511 156.696 128.816 156.772C129.463 158.905 129.349 161.248 128.473 163.799C114.419 163.495 105.888 163.342 102.879 163.342C100.823 163.342 93.6436 163.495 81.3418 163.799C80.3896 161.171 80.3896 158.715 81.3418 156.43C89.6064 155.592 93.7769 154.468 93.853 153.059Z" fill="white"/>
</g>
<path fill-rule="evenodd" clip-rule="evenodd" d="M92.9996 189.003C94.11 189.003 95.2157 188.983 96.3163 188.942L92.2586 193C88.2103 192.968 84.2236 192.678 80.3142 192.145L83.9143 188.545C86.9016 188.848 89.9324 189.003 92.9996 189.003ZM78.1185 187.764L74.6831 191.2C70.8151 190.427 67.0337 189.415 63.355 188.178L66.5322 185.001C70.2934 186.171 74.1616 187.098 78.1185 187.764ZM99.024 192.811L103.438 188.397C108.251 187.835 112.947 186.889 117.495 185.59L112.03 191.054C107.793 191.935 103.451 192.528 99.024 192.811ZM185.811 106.024L181.397 110.438C180.835 115.251 179.889 119.947 178.59 124.495L184.054 119.03C184.935 114.793 185.528 110.451 185.811 106.024ZM181.942 103.316L186 99.2586C185.968 95.2103 185.678 91.2236 185.145 87.3142L181.545 90.9143C181.848 93.9016 182.003 96.9324 182.003 99.9996C182.003 101.11 181.983 102.216 181.942 103.316ZM180.764 85.1185L184.2 81.6831C183.427 77.8151 182.415 74.0337 181.178 70.355L178.001 73.5322C179.171 77.2934 180.098 81.1616 180.764 85.1185ZM160.068 41.4876C143.752 22.8017 119.755 10.9963 92.9996 10.9963C72.2503 10.9963 53.1594 18.0966 38.0239 30H31.7631C48.1227 15.6767 69.5474 6.99628 92.9996 6.99628C120.859 6.99628 145.858 19.2459 162.903 38.653L160.068 41.4876ZM18.0087 44.9802C19.1256 45.746 20.129 46.6673 21.0119 47.65C10.3103 62.341 3.99628 80.4329 3.99628 99.9996C3.99628 126.755 15.8017 150.752 34.4876 167.068L31.653 169.903C12.2459 152.858 -0.00372314 127.859 -0.00372314 99.9996C-0.00372314 79.4125 6.68536 60.3878 18.0087 44.9802ZM38.0849 170.047L35.2368 172.895C38.0683 175.142 41.0338 177.227 44.1193 179.137L47.0291 176.227C43.9182 174.347 40.9317 172.282 38.0849 170.047ZM163.047 45.0849C165.282 47.9317 167.347 50.9182 169.227 54.0291L172.137 51.1193C170.227 48.0338 168.142 45.0683 165.895 42.2368L163.047 45.0849ZM51.2234 178.609L48.2717 181.561C51.5788 183.378 55.0085 185.001 58.5451 186.412L61.6372 183.32C58.0499 181.969 54.5729 180.393 51.2234 178.609ZM171.609 58.2234C173.393 61.5729 174.969 65.0499 176.32 68.6372L179.412 65.5451C178.001 62.0085 176.378 58.5788 174.561 55.2717L171.609 58.2234ZM120.922 188.738L127.658 182.002C136.446 178.284 144.513 173.193 151.589 167H157.502C147.276 176.848 134.8 184.376 120.922 188.738ZM170.19 151.894C175.12 144.575 179.036 136.518 181.738 127.922L175.003 134.658C172.664 140.185 169.782 145.427 166.425 150.317C167.676 151.042 168.967 151.55 170.19 151.894Z" fill="white"/>
<g filter="url(#filter2_d_11_59)">
<path d="M143 72.5C138.6 67.7 129.5 66.8333 125.5 67V53.5C129.833 53.1667 140.8 54.3 150 61.5L143 72.5Z" fill="white"/>
<circle cx="127" cy="50" r="6" fill="white"/>
<circle cx="135" cy="50" r="6" fill="white"/>
<circle cx="133" cy="46" r="6" fill="white"/>
<circle cx="142" cy="47" r="6" fill="white"/>
<circle cx="149" cy="52" r="6" fill="white"/>
<circle cx="152" cy="58" r="6" fill="white"/>
<circle cx="143" cy="56" r="6" fill="white"/>
<circle cx="146" cy="57" r="6" fill="white"/>
</g>
<defs>
<filter id="filter0_d_11_59" x="13.9883" y="34.3477" width="90.8281" height="93.5234" filterUnits="userSpaceOnUse" color-interpolation-filters="sRGB">
<feFlood flood-opacity="0" result="BackgroundImageFix"/>
<feColorMatrix in="SourceAlpha" type="matrix" values="0 0 0 0 0 0 0 0 0 0 0 0 0 0 0 0 0 0 127 0" result="hardAlpha"/>
<feOffset dx="2" dy="2"/>
<feComposite in2="hardAlpha" operator="out"/>
<feColorMatrix type="matrix" values="0 0 0 0 0 0 0 0 0 0 0 0 0 0 0 0 0 0 0.25 0"/>
<feBlend mode="normal" in2="BackgroundImageFix" result="effect1_dropShadow_11_59"/>
<feBlend mode="normal" in="SourceGraphic" in2="effect1_dropShadow_11_59" result="shape"/>
</filter>
<filter id="filter1_d_11_59" x="79.9136" y="74.564" width="95.4629" height="91.2354" filterUnits="userSpaceOnUse" color-interpolation-filters="sRGB">
<feFlood flood-opacity="0" result="BackgroundImageFix"/>
<feColorMatrix in="SourceAlpha" type="matrix" values="0 0 0 0 0 0 0 0 0 0 0 0 0 0 0 0 0 0 127 0" result="hardAlpha"/>
<feOffset dx="2" dy="2"/>
<feComposite in2="hardAlpha" operator="out"/>
<feColorMatrix type="matrix" values="0 0 0 0 0 0 0 0 0 0 0 0 0 0 0 0 0 0 0.25 0"/>
<feBlend mode="normal" in2="BackgroundImageFix" result="effect1_dropShadow_11_59"/>
<feBlend mode="normal" in="SourceGraphic" in2="effect1_dropShadow_11_59" result="shape"/>
</filter>
<filter id="filter2_d_11_59" x="121" y="40" width="39" height="34.5" filterUnits="userSpaceOnUse" color-interpolation-filters="sRGB">
<feFlood flood-opacity="0" result="BackgroundImageFix"/>
<feColorMatrix in="SourceAlpha" type="matrix" values="0 0 0 0 0 0 0 0 0 0 0 0 0 0 0 0 0 0 127 0" result="hardAlpha"/>
<feOffset dx="2" dy="2"/>
<feComposite in2="hardAlpha" operator="out"/>
<feColorMatrix type="matrix" values="0 0 0 0 0 0 0 0 0 0 0 0 0 0 0 0 0 0 0.25 0"/>
<feBlend mode="normal" in2="BackgroundImageFix" result="effect1_dropShadow_11_59"/>
<feBlend mode="normal" in="SourceGraphic" in2="effect1_dropShadow_11_59" result="shape"/>
</filter>
</defs>
</svg>
