<svg width="186" height="195" viewBox="0 0 186 195" fill="none" xmlns="http://www.w3.org/2000/svg">
<g filter="url(#filter0_d_14_60)">
<path d="M58.5233 85.4414H50.3787C50.3787 94.7383 50.574 104.582 50.9647 114.973C50.9647 115.207 51.0623 115.422 51.2576 115.617C51.4529 115.812 51.7264 116.008 52.0779 116.203C52.4686 116.398 53.1131 116.652 54.0115 116.965C54.91 117.277 56.7264 117.629 59.4608 118.02C62.1951 118.371 63.7576 118.586 64.1483 118.664C64.8123 120.852 64.6951 123.254 63.7967 125.871C49.3826 125.559 40.6326 125.402 37.5467 125.402C35.4373 125.402 28.074 125.559 15.4568 125.871C14.4803 123.176 14.4803 120.656 15.4568 118.312C23.9334 117.453 28.2108 116.301 28.2889 114.855C28.7576 105.09 28.992 92.8047 28.992 78C28.992 65.4219 28.7967 54.543 28.4061 45.3633C28.3279 43.918 23.9725 42.7656 15.3397 41.9062C14.5975 39.1719 14.6756 36.6523 15.574 34.3477C27.5662 34.7383 35.5154 34.9336 39.4217 34.9336H93.6795C94.6561 42.5898 97.7029 50.6562 102.82 59.1328C101.922 61.0078 99.8318 62.5312 96.5506 63.7031C93.3475 57.8828 88.6209 53.0391 82.3709 49.1719C76.16 45.2656 68.0936 43.3125 58.1717 43.3125H50.9647C50.574 57.3359 50.3787 68.0977 50.3787 75.5977C52.2928 75.6758 55.0467 75.7148 58.6404 75.7148C61.9217 75.7148 64.5389 74.6211 66.492 72.4336C68.4451 70.207 70.5936 66.75 72.9373 62.0625L75.4568 57.1406C78.7381 58.3125 80.8084 59.8164 81.6678 61.6523C77.5272 69.1133 75.4568 75.2461 75.4568 80.0508C75.4568 85.2461 77.5272 91.3594 81.6678 98.3906C80.7303 100.383 78.7381 101.906 75.6912 102.961C74.7928 101.75 73.7576 99.9141 72.5858 97.4531C70.9842 94.7969 69.7147 92.8242 68.7772 91.5352C67.8397 90.207 66.4529 88.8789 64.617 87.5508C62.7811 86.2227 60.7498 85.5195 58.5233 85.4414ZM41.3553 81.9844L58.0545 81.8672C59.7342 81.8672 61.3162 82.1406 62.8006 82.6875C64.285 83.2344 65.4568 83.8008 66.3162 84.3867C67.2147 84.9336 68.2303 86.0078 69.3631 87.6094C70.535 89.2109 71.3553 90.3828 71.824 91.125C72.3318 91.8281 73.1522 93.3125 74.285 95.5781C75.4568 97.8438 76.2381 99.3086 76.6287 99.9727C77.8397 99.4648 78.6014 98.9375 78.9139 98.3906C75.0076 91.4375 73.0545 85.3242 73.0545 80.0508C73.0545 77.6289 73.6014 74.6797 74.6951 71.2031C75.8279 67.7266 77.2342 64.543 78.9139 61.6523C78.7576 61.1055 77.9959 60.5977 76.6287 60.1289C76.3162 60.6758 75.6912 61.8477 74.7537 63.6445C73.8553 65.4414 73.2693 66.6133 72.9959 67.1602C72.7225 67.668 72.1561 68.625 71.2967 70.0312C70.4764 71.4375 69.8123 72.375 69.3045 72.8438C68.8358 73.3125 68.1326 74.0156 67.1951 74.9531C66.2967 75.8516 65.4178 76.4766 64.5584 76.8281C63.7381 77.1406 62.7615 77.4336 61.6287 77.707C60.4959 77.9805 59.3045 78.1172 58.0545 78.1172C50.7498 78.1172 45.1834 78.0391 41.3553 77.8828C41.3553 68.4297 41.5897 56.1055 42.0584 40.9102H58.2889C77.3904 40.9102 90.5154 47.5117 97.6639 60.7148C98.6795 60.3242 99.3436 59.7969 99.6561 59.1328C95.7498 51.1641 91.3748 45.5391 86.5311 42.2578C81.6873 38.9766 74.4608 37.3359 64.8514 37.3359H37.7811C32.8983 37.3359 26.0428 37.1797 17.2147 36.8672V39.6211C26.199 40.4805 30.7303 42.3555 30.8084 45.2461C31.199 54.4258 31.3943 65.3438 31.3943 78C31.3943 90.3828 31.16 102.707 30.6912 114.973C30.6131 117.863 26.0818 119.738 17.0975 120.598C16.785 121.223 16.785 122.141 17.0975 123.352C23.7381 123.117 30.5545 123 37.5467 123C45.867 123 53.8553 123.117 61.5115 123.352C61.824 122.727 61.824 121.809 61.5115 120.598C48.6209 119.816 42.0975 117.941 41.9412 114.973C41.5506 105.754 41.3553 94.7578 41.3553 81.9844Z" fill="white"/>
</g>
<g filter="url(#filter1_d_14_60)">
<path d="M107.168 80.9624H107.282C109.643 80.8101 112.69 80.7339 116.423 80.7339C122.212 80.7339 126.63 82.5239 129.677 86.104C132.762 89.6841 134.304 94.3306 134.304 100.043C134.304 105.833 132.895 110.86 130.076 115.125C127.296 119.353 122.935 121.467 116.994 121.467C113.49 121.467 110.024 121.029 106.596 120.153C106.596 106.747 106.787 93.6831 107.168 80.9624ZM131.962 100.043C131.962 95.1304 130.476 90.998 127.506 87.6465C124.573 84.2949 120.688 82.8096 115.851 83.1904C115.547 97.8535 115.394 109.603 115.394 118.439C116.156 118.667 117.318 118.858 118.879 119.01C123.335 118.515 126.63 116.42 128.763 112.726C130.895 109.032 131.962 104.804 131.962 100.043ZM96.199 153.173C96.1229 155.992 91.7049 157.82 82.9451 158.658C82.6404 159.267 82.6404 160.162 82.9451 161.343C89.4197 161.114 96.0657 161 102.883 161C110.995 161 118.784 161.114 126.249 161.343C126.554 160.733 126.554 159.838 126.249 158.658C113.604 157.896 107.244 156.068 107.168 153.173C106.787 142.471 106.596 132.912 106.596 124.495C110.9 125.371 114.88 125.809 118.536 125.809C124.783 137.425 133.009 149.155 143.216 161C145.159 161 147.958 161.019 151.614 161.057C155.308 161.095 158.622 161.133 161.555 161.171C164.525 161.209 167.344 161.267 170.01 161.343C170.314 160.657 170.314 159.762 170.01 158.658C163.763 158.201 158.489 156.677 154.185 154.087C149.919 151.459 144.93 146.623 139.217 139.577C135.332 134.664 131.828 129.484 128.705 124.038C134.342 122.171 138.779 119.067 142.016 114.726C145.254 110.384 146.872 105.49 146.872 100.043C146.872 93.188 144.663 87.6465 140.245 83.4189C135.827 79.1533 129.715 77.0205 121.907 77.0205C96.1609 77.3252 83.2117 77.3252 83.0594 77.0205C82.8309 77.9346 82.8309 78.8296 83.0594 79.7056C91.8192 80.5435 96.2371 82.3716 96.3133 85.1899C96.6942 94.1401 96.8846 104.785 96.8846 117.125C96.8846 129.198 96.6561 141.214 96.199 153.173ZM93.8568 153.059C94.3138 143.538 94.5423 131.56 94.5423 117.125C94.5423 104.861 94.3519 94.2544 93.971 85.3042C93.8948 83.895 89.6483 82.7715 81.2313 81.9336C80.5838 79.4199 80.66 76.9634 81.4598 74.564C85.6492 74.7925 90.2005 74.9067 95.1136 74.9067C100.027 74.9067 105.663 74.8687 112.024 74.7925C118.384 74.7163 123.05 74.6782 126.02 74.6782C135.237 74.6782 142.473 77.0205 147.729 81.7051C152.985 86.3516 155.613 92.4644 155.613 100.043C155.613 105.414 154.071 110.365 150.986 114.897C147.901 119.429 143.749 122.857 138.532 125.18C141.121 129.408 144.13 133.75 147.558 138.206C151.595 143.576 155.556 147.841 159.441 151.002C163.364 154.164 167.705 155.973 172.466 156.43C173.076 158.867 172.999 161.324 172.238 163.799C166.791 163.647 156.775 163.495 142.188 163.342C131.486 150.85 123.126 139.12 117.108 128.151H115.394C115.394 135.235 115.585 143.538 115.966 153.059C115.966 153.288 116.061 153.516 116.251 153.745C116.442 153.973 117.184 154.335 118.479 154.83C119.774 155.325 121.736 155.763 124.364 156.144C127.03 156.487 128.515 156.696 128.82 156.772C129.467 158.905 129.353 161.248 128.477 163.799C114.423 163.495 105.892 163.342 102.883 163.342C100.826 163.342 93.6473 163.495 81.3455 163.799C80.3934 161.171 80.3934 158.715 81.3455 156.43C89.6102 155.592 93.7806 154.468 93.8568 153.059Z" fill="white"/>
</g>
<path fill-rule="evenodd" clip-rule="evenodd" d="M93.0033 189.003C94.1138 189.003 95.2195 188.983 96.32 188.942L92.2623 193C88.214 192.968 84.2273 192.678 80.3179 192.145L83.918 188.545C86.9053 188.848 89.9362 189.003 93.0033 189.003ZM78.1222 187.764L74.6869 191.2C70.8188 190.427 67.0374 189.415 63.3587 188.178L66.5359 185.001C70.2971 186.171 74.1654 187.098 78.1222 187.764ZM99.0277 192.811L103.441 188.397C108.255 187.835 112.951 186.889 117.498 185.59L112.034 191.054C107.797 191.935 103.454 192.528 99.0277 192.811ZM185.815 106.024L181.401 110.438C180.839 115.251 179.892 119.947 178.593 124.495L184.058 119.03C184.939 114.793 185.532 110.451 185.815 106.024ZM181.946 103.316L186.004 99.2586C185.972 95.2103 185.682 91.2236 185.149 87.3142L181.549 90.9143C181.851 93.9016 182.007 96.9324 182.007 99.9996C182.007 101.11 181.986 102.216 181.946 103.316ZM180.768 85.1185L184.203 81.6831C183.431 77.8151 182.418 74.0337 181.182 70.355L178.005 73.5322C179.175 77.2934 180.102 81.1616 180.768 85.1185ZM160.072 41.4876C143.756 22.8017 119.758 10.9963 93.0033 10.9963C72.254 10.9963 53.1631 18.0966 38.0277 30H31.7668C48.1264 15.6767 69.5511 6.99628 93.0033 6.99628C120.863 6.99628 145.861 19.2459 162.906 38.653L160.072 41.4876ZM18.0124 44.9802C19.1293 45.746 20.1327 46.6673 21.0156 47.65C10.314 62.341 4 80.4329 4 99.9996C4 126.755 15.8054 150.752 34.4914 167.068L31.6567 169.903C12.2497 152.858 0 127.859 0 99.9996C0 79.4125 6.68908 60.3878 18.0124 44.9802ZM38.0886 170.047L35.2405 172.895C38.0721 175.142 41.0376 177.227 44.1231 179.137L47.0328 176.227C43.9219 174.347 40.9354 172.282 38.0886 170.047ZM163.051 45.0849C165.286 47.9317 167.351 50.9182 169.231 54.0291L172.141 51.1193C170.231 48.0338 168.146 45.0683 165.899 42.2368L163.051 45.0849ZM51.2271 178.609L48.2754 181.561C51.5826 183.378 55.0122 185.001 58.5488 186.412L61.6409 183.32C58.0536 181.969 54.5767 180.393 51.2271 178.609ZM171.613 58.2234C173.397 61.5729 174.973 65.0499 176.324 68.6372L179.416 65.5451C178.004 62.0085 176.382 58.5788 174.565 55.2717L171.613 58.2234ZM120.926 188.738L127.662 182.002C136.45 178.284 144.516 173.193 151.593 167H157.506C147.279 176.848 134.804 184.376 120.926 188.738ZM170.194 151.894C175.124 144.575 179.04 136.518 181.742 127.922L175.006 134.658C172.667 140.185 169.786 145.427 166.429 150.317C167.679 151.042 168.971 151.55 170.194 151.894Z" fill="white"/>
<g filter="url(#filter2_d_14_60)">
<path d="M143.004 72.5C138.604 67.7 129.504 66.8333 125.504 67V53.5C129.837 53.1667 140.804 54.3 150.004 61.5L143.004 72.5Z" fill="white"/>
<circle cx="127.004" cy="50" r="6" fill="white"/>
<circle cx="135.004" cy="50" r="6" fill="white"/>
<circle cx="133.004" cy="46" r="6" fill="white"/>
<circle cx="142.004" cy="47" r="6" fill="white"/>
<circle cx="149.004" cy="52" r="6" fill="white"/>
<circle cx="152.004" cy="58" r="6" fill="white"/>
<circle cx="143.004" cy="56" r="6" fill="white"/>
<circle cx="146.004" cy="57" r="6" fill="white"/>
</g>
<defs>
<filter id="filter0_d_14_60" x="13.992" y="34.3477" width="90.8281" height="93.5234" filterUnits="userSpaceOnUse" color-interpolation-filters="sRGB">
<feFlood flood-opacity="0" result="BackgroundImageFix"/>
<feColorMatrix in="SourceAlpha" type="matrix" values="0 0 0 0 0 0 0 0 0 0 0 0 0 0 0 0 0 0 127 0" result="hardAlpha"/>
<feOffset dx="2" dy="2"/>
<feComposite in2="hardAlpha" operator="out"/>
<feColorMatrix type="matrix" values="0 0 0 0 0 0 0 0 0 0 0 0 0 0 0 0 0 0 0.25 0"/>
<feBlend mode="normal" in2="BackgroundImageFix" result="effect1_dropShadow_14_60"/>
<feBlend mode="normal" in="SourceGraphic" in2="effect1_dropShadow_14_60" result="shape"/>
</filter>
<filter id="filter1_d_14_60" x="79.9173" y="74.564" width="95.4629" height="91.2354" filterUnits="userSpaceOnUse" color-interpolation-filters="sRGB">
<feFlood flood-opacity="0" result="BackgroundImageFix"/>
<feColorMatrix in="SourceAlpha" type="matrix" values="0 0 0 0 0 0 0 0 0 0 0 0 0 0 0 0 0 0 127 0" result="hardAlpha"/>
<feOffset dx="2" dy="2"/>
<feComposite in2="hardAlpha" operator="out"/>
<feColorMatrix type="matrix" values="0 0 0 0 0 0 0 0 0 0 0 0 0 0 0 0 0 0 0.25 0"/>
<feBlend mode="normal" in2="BackgroundImageFix" result="effect1_dropShadow_14_60"/>
<feBlend mode="normal" in="SourceGraphic" in2="effect1_dropShadow_14_60" result="shape"/>
</filter>
<filter id="filter2_d_14_60" x="121.004" y="40" width="39" height="34.5" filterUnits="userSpaceOnUse" color-interpolation-filters="sRGB">
<feFlood flood-opacity="0" result="BackgroundImageFix"/>
<feColorMatrix in="SourceAlpha" type="matrix" values="0 0 0 0 0 0 0 0 0 0 0 0 0 0 0 0 0 0 127 0" result="hardAlpha"/>
<feOffset dx="2" dy="2"/>
<feComposite in2="hardAlpha" operator="out"/>
<feColorMatrix type="matrix" values="0 0 0 0 0 0 0 0 0 0 0 0 0 0 0 0 0 0 0.25 0"/>
<feBlend mode="normal" in2="BackgroundImageFix" result="effect1_dropShadow_14_60"/>
<feBlend mode="normal" in="SourceGraphic" in2="effect1_dropShadow_14_60" result="shape"/>
</filter>
</defs>
</svg>
